<?xml version="1.0" encoding="UTF-8" standalone="no"?>
<svg
   xmlns:dc="http://purl.org/dc/elements/1.1/"
   xmlns:cc="http://creativecommons.org/ns#"
   xmlns:rdf="http://www.w3.org/1999/02/22-rdf-syntax-ns#"
   xmlns:svg="http://www.w3.org/2000/svg"
   xmlns="http://www.w3.org/2000/svg"
   viewBox="0 0 390.21332 444.30667"
   height="444.30667"
   width="390.21332"
   xml:space="preserve"
   id="svg2"
   version="1.1"><metadata
     id="metadata8"><rdf:RDF><cc:Work
         rdf:about=""><dc:format>image/svg+xml</dc:format><dc:type
           rdf:resource="http://purl.org/dc/dcmitype/StillImage" /></cc:Work></rdf:RDF></metadata><defs
     id="defs6" /><g
     transform="matrix(1.3333333,0,0,-1.3333333,0,444.30667)"
     id="g10"><g
       transform="scale(0.1)"
       id="g12"><path
         id="path14"
         style="fill:#ffffff;fill-opacity:1;fill-rule:nonzero;stroke:none"
         d="M 2926.56,3332.26 H 0 c 0,0 0.015625,-1451.18 0.0117188,-1458.85 C -1.93359,1238.35 349.992,778.391 645.563,504.359 970.625,202.98 1329,29.2109 1448.74,3.12891 L 1463.28,0 1477.95,3.14844 C 1597.57,29.2109 1955.94,202.98 2281.01,504.359 c 295.56,274.032 647.49,733.991 645.54,1369.021 -0.04,18.17 0.01,1458.88 0.01,1458.88" /><path
         id="path16"
         style="fill:#990000;fill-opacity:1;fill-rule:nonzero;stroke:none"
         d="m 2746.46,2721.46 h 0.01 c 4.27,-3.34 8.71,-6.8 11.83,-11.43 3.33,-4.93 5.02,-10.71 4.88,-16.95 0.14,-5.99 -1.55,-11.77 -4.88,-16.7 -3.12,-4.63 -7.56,-8.08 -11.83,-11.43 -6.64,-5.18 -12.91,-10.09 -12.91,-18.59 v -51.97 l -306.85,0.02 -306.85,-0.02 v 51.97 c 0,8.5 -6.27,13.41 -12.91,18.59 -4.27,3.35 -8.71,6.8 -11.82,11.43 -3.34,4.93 -5.03,10.71 -4.89,16.96 -0.14,5.98 1.55,11.76 4.89,16.69 3.11,4.63 7.55,8.09 11.83,11.43 6.63,5.18 12.9,10.08 12.9,18.59 v 169.65 c 0,8.5 -6.27,13.4 -12.91,18.59 -4.27,3.34 -8.71,6.8 -11.82,11.43 -3.34,4.94 -5.03,10.71 -4.89,16.95 -0.14,5.99 1.55,11.76 4.88,16.7 3.13,4.64 7.76,8.25 11.84,11.43 6.63,5.19 12.9,10.08 12.9,18.59 v 53.54 h 7.81 c 35.87,0.02 67.34,0.8 89.26,10.18 8.96,3.82 17.2,9 25.99,14.53 18.8,11.82 40.11,25.22 71.98,25.22 25.58,0 49.34,-9.57 70.38,-18.05 14.87,-5.97 28.89,-11.61 39.36,-11.61 h 4.14 c 10.47,0 24.5,5.64 39.44,11.64 20.96,8.45 44.72,18.02 70.3,18.02 31.87,0 53.18,-13.4 72.03,-25.25 8.74,-5.5 16.99,-10.68 25.94,-14.5 21.92,-9.38 53.39,-10.16 89.26,-10.18 h 7.81 v -53.54 c 0,-8.51 6.27,-13.4 12.91,-18.59 4.08,-3.18 8.7,-6.79 11.83,-11.43 3.33,-4.94 5.02,-10.71 4.88,-16.95 0.14,-5.99 -1.55,-11.76 -4.88,-16.7 -3.12,-4.63 -7.56,-8.09 -11.83,-11.43 -6.64,-5.19 -12.91,-10.09 -12.91,-18.59 v -169.65 c 0,-8.51 6.27,-13.41 12.9,-18.59 z m -752.43,-88.67 c -47.45,-75.9 -139.02,-94.45 -142.8,-95.19 -18.06,-3.19 -36.6,-4.81 -55.11,-4.81 h -0.02 c -95.65,0 -184.06,41.62 -273.71,87.98 -10.1,5.23 -21.31,11.36 -33.39,17.97 -57.23,31.32 -137.11,75.05 -204.73,75.05 -19.66,0 -38.3,-3.7 -55.03,-12.48 l -2.77,-1.46 -0.17,-3.14 c -0.45,-8.82 -2.14,-17.2 -5.01,-24.9 -10.77,-28.85 -46.02,-59.53 -63.18,-71.73 -39.34,-28.31 -87.7,-57.24 -147.99,-57.24 -9.02,0 -17.37,1.29 -24.835,3.84 -10.824,3.68 -20.129,10.23 -26.906,18.96 -3.301,4.24 -6.078,9.06 -8.262,14.33 -1.738,4.18 -2.812,8.32 -3.48,13.41 l -0.465,3.53 -3.41,1.02 c -23.356,7.01 -37.297,22.29 -37.297,40.89 0,13.99 10.336,26.23 20.348,38.08 15.585,18.45 29.042,34.38 7.085,55.19 -2.062,1.95 -4.449,3.72 -6.789,5.45 -3.187,2.36 -6.203,4.6 -8.933,7.52 -19.258,20.67 -7.883,63.58 -1.086,89.23 l 0.738,2.78 c 7.391,28.08 18.727,57.12 34.645,88.78 21.55,42.88 47.605,91.18 84.117,121.73 0.73,0.61 1.67,0.88 2.62,0.74 0.94,-0.14 1.77,-0.68 2.29,-1.47 0.74,-1.13 4.72,-7.24 10.44,-16.8 l 6.16,-10.25 3.79,11.34 c 10.15,30.32 26.9,49.96 49.79,58.36 24.53,9 47.36,-3.62 58.8,-11.95 l 4.81,-3.51 3.12,5.08 c 7.32,11.92 20.79,26.34 43.43,27.36 24.82,1.11 45.08,-15.83 54.89,-26.06 l 3.57,-3.71 3.94,3.29 c 11.1,9.29 40.06,30.42 69.15,26.5 27.52,-3.71 38.02,-27.7 41.26,-37.85 l 1.95,-6.1 5.74,2.84 c 12.94,6.41 38.2,14.9 61.92,-0.13 15.23,-9.64 17.04,-26.14 15.88,-38.28 l -0.68,-7.14 7.08,1.19 c 17.83,3.01 50.65,5.06 70.13,-14.83 15.33,-15.66 16.33,-35.92 14.48,-50.16 l -0.91,-7 7.01,0.82 c 15.66,1.84 36.67,0.35 47.99,-17.21 7.69,-11.92 4.69,-28.74 2.22,-37.7 l -1.51,-5.48 5.52,-1.34 c 9.1,-2.22 25.08,-7.89 29.83,-20.95 3.53,-9.7 2.4,-25.92 -3.11,-44.49 l -1.42,-4.78 4.61,-1.88 c 7.9,-3.24 22.33,-10.98 30.14,-26.4 7.64,-15.1 7.29,-33.85 -1.03,-55.75 l -1.35,-3.55 2.84,-2.53 c 20.38,-18.09 40.93,-34.69 61.06,-49.33 40.87,-29.72 104.58,-45.49 147.87,-9.9 16.36,13.44 23.64,37.99 18.1,61.07 -4.9,20.45 -18.4,34.53 -37.02,38.65 -32.69,7.18 -58.63,-23.87 -79.69,-55.22 -0.67,-1.02 -1.87,-1.57 -3.08,-1.45 -1.22,0.11 -2.26,0.89 -2.73,2.02 -19.39,46.32 -20.33,84.77 -2.82,114.27 14.84,25.02 43.45,42.57 78.48,48.14 l 4.7,0.74 -0.06,4.76 c -0.62,54.87 12.52,94.86 39.05,118.88 16.14,14.59 45.79,30.58 95.44,23.89 1.02,-0.14 1.94,-0.75 2.45,-1.64 0.5,-0.89 0.57,-1.98 0.18,-2.93 -36.48,-87.93 -27.45,-120.84 -7.65,-193.04 1.75,-6.35 3.57,-12.99 5.44,-19.98 v 0 c 18.33,-68.41 12.72,-126.93 -16.67,-173.94 z m -1174.284,88.67 h 0.008 c 4.281,-3.34 8.711,-6.8 11.836,-11.43 3.328,-4.93 5.019,-10.71 4.883,-16.95 0.136,-5.99 -1.555,-11.77 -4.883,-16.7 -3.125,-4.63 -7.555,-8.08 -11.836,-11.43 -6.637,-5.18 -12.906,-10.09 -12.906,-18.59 v -51.97 L 500,2594.41 193.152,2594.39 v 51.97 c 0,8.5 -6.265,13.41 -12.906,18.59 -4.281,3.35 -8.711,6.8 -11.832,11.43 -3.336,4.93 -5.023,10.71 -4.887,16.96 -0.136,5.98 1.551,11.76 4.887,16.69 3.121,4.63 7.555,8.09 11.836,11.43 6.637,5.18 12.902,10.08 12.902,18.59 v 169.65 c 0,8.5 -6.265,13.4 -12.906,18.59 -4.281,3.34 -8.711,6.8 -11.832,11.43 -3.336,4.94 -5.023,10.71 -4.887,16.95 -0.136,5.99 1.551,11.76 4.883,16.7 3.133,4.64 7.758,8.25 11.84,11.43 6.637,5.19 12.902,10.08 12.902,18.59 v 53.54 h 7.805 c 35.871,0.02 67.344,0.8 89.266,10.18 8.953,3.82 17.199,9 25.988,14.53 18.801,11.82 40.105,25.22 71.984,25.22 25.571,0 49.332,-9.57 70.379,-18.05 14.86,-5.97 28.887,-11.61 39.356,-11.61 h 4.136 c 10.469,0 24.504,5.64 39.446,11.64 20.961,8.45 44.718,18.02 70.293,18.02 31.879,0 53.187,-13.4 72.035,-25.25 8.734,-5.5 16.984,-10.68 25.933,-14.5 21.922,-9.38 53.399,-10.16 89.27,-10.18 h 7.805 v -53.54 c 0,-8.51 6.265,-13.4 12.906,-18.59 4.082,-3.18 8.703,-6.79 11.836,-11.43 3.328,-4.94 5.019,-10.71 4.883,-16.95 0.136,-5.99 -1.555,-11.76 -4.883,-16.7 -3.125,-4.63 -7.555,-8.09 -11.836,-11.43 -6.637,-5.19 -12.906,-10.09 -12.906,-18.59 v -169.65 c 0,-8.51 6.265,-13.41 12.898,-18.59 z M 74,3255.2 c 0,0 3.8711,-847.81 -0.1641,-843.72 l 2779.0441,-0.02 c 0,397.21 0,843.74 0,843.74 H 74" /><path
         id="path18"
         style="fill:#011f5b;fill-opacity:1;fill-rule:nonzero;stroke:none"
         d="m 1031.33,2757.99 c 9.73,0 18.99,-2.53 28.14,-10.08 3.04,-2.5 5.82,-5.02 8.27,-7.36 6.38,-6.09 5.99,-16.34 -0.85,-21.9 -6.89,-5.61 -14.73,-11.18 -19.64,-14.54 -11.33,-7.75 -30.71,-21.95 -44.16,-10.79 -6.809,5.65 6.66,14.84 0.76,38.2 -4.623,18.28 13.45,26.47 27.48,26.47" /><path
         id="path20"
         style="fill:#011f5b;fill-opacity:1;fill-rule:nonzero;stroke:none"
         d="m 1035.81,3031.5 c -30.89,-29.25 -54.037,-72.42 -73.486,-111.11 -15.531,-30.89 -26.57,-59.15 -33.754,-86.41 l -0.738,-2.8 c -5.34,-20.15 -16.453,-62.08 -1.766,-77.83 1.977,-2.13 4.567,-4.04 7.305,-6.07 2.606,-1.93 5.297,-3.92 7.879,-6.37 30.289,-28.71 9.227,-53.64 -6.156,-71.85 -8.989,-10.64 -17.481,-20.69 -17.481,-30.24 0,-21.31 25.785,-28.78 33.688,-30.57 3.789,-0.86 6.578,-4.09 6.859,-7.96 0.453,-6.18 1.117,-10.71 3.176,-15.66 1.777,-4.27 4.008,-8.15 6.641,-11.54 5.308,-6.84 12.656,-12 21.222,-14.92 6.203,-2.11 13.241,-3.18 20.921,-3.18 56.84,0 103.14,27.79 140.94,54.98 22.58,16.06 50.86,44.67 58.85,66.08 2.15,5.76 3.48,11.77 4.06,18.24 l -39.75,6.76 c -0.37,0.06 -0.72,0.14 -1.07,0.25 -4.16,1.25 -7.01,4.36 -7.62,8.33 -1.22,7.96 5.85,12.78 19.94,22.37 4.16,2.84 8.45,5.75 12.51,8.77 20.87,15.49 37.84,27.72 47.36,34.53 -11.01,12.3 -20.35,26.49 -28.13,38.29 -6.01,9.14 -11.21,17.03 -15.65,21.89 -19.72,21.43 -54.47,33.97 -82.71,16.41 -11.4,-7.09 -21.36,-15.91 -31.91,-25.23 -8.53,-7.55 -17.35,-15.36 -27.02,-22.18 -3.77,-2.67 -8.95,-1.97 -11.9,1.59 -2.94,3.56 -2.64,8.77 0.68,11.98 1.28,1.23 2.79,2.65 4.47,4.23 12.87,12.1 43,40.43 43,60.52 0,46.53 -44.56,123.04 -60.36,148.7 z m 249.2,-305.19 c 69.31,0 148.08,-43.12 209.83,-76.92 11.88,-6.5 23.09,-12.64 33.13,-17.83 105.4,-54.51 209.27,-101.79 321.01,-82.02 0.74,0.15 90.28,18.41 134.83,89.82 27.46,44.01 32.56,99.26 15.16,164.23 -1.87,6.99 -3.7,13.64 -5.44,20 -18.51,67.44 -29.05,105.82 3.74,189.83 -38.21,2.45 -61.29,-10.26 -74.27,-22 -25.04,-22.66 -36.78,-62.14 -34.88,-117.36 0.16,-4.63 -3.29,-8.6 -7.91,-9.08 -34.31,-3.55 -63.13,-19.73 -77.1,-43.28 -13.53,-22.8 -14.28,-52.35 -2.25,-87.98 17.02,23.23 45.85,54.57 82.74,46.43 23,-5.09 40.29,-22.91 46.23,-47.68 6.59,-27.5 -2.33,-56.96 -22.19,-73.29 -48.29,-39.69 -118.21,-22.91 -162.75,9.46 -52.37,38.08 -104.42,86.55 -159.13,148.16 -9.51,10.72 -19.01,21.73 -28.19,32.37 -34.45,39.91 -70.08,81.19 -112.58,113.98 -66.47,51.3 -145.06,59.69 -199.33,57.73 -36.94,-1.35 -111.1,-11.74 -160.81,-41.9 15.22,-31.67 28.98,-68.08 28.98,-96.18 0,-4.96 -1.01,-9.99 -2.77,-14.99 36.08,21.28 79.2,6.03 103.53,-20.4 5.39,-5.93 10.94,-14.35 17.37,-24.11 9.43,-14.32 20.13,-30.55 32.96,-42.91 1.89,-1.82 2.87,-4.4 2.67,-7.03 -0.2,-2.63 -1.56,-5.02 -3.72,-6.54 -0.22,-0.16 -23.08,-16.28 -55.37,-40.23 -4.35,-3.22 -8.99,-6.39 -13.09,-9.18 -0.77,-0.52 -1.59,-1.07 -2.42,-1.65 l 28.48,-4.83 c 19.58,10.84 41.07,15.38 63.54,15.38 z m 511.11,-199.03 c -95.79,-0.01 -185.53,41.68 -276.27,88.6 -10.21,5.28 -21.52,11.47 -33.48,18.02 -73.13,40.03 -182.92,100.12 -254.57,62.53 -0.48,-9.4 -2.28,-18.3 -5.35,-26.55 -11.23,-30.1 -47.51,-61.75 -65.12,-74.27 -40.04,-28.81 -89.35,-58.28 -151.21,-58.28 -9.62,0 -18.569,1.39 -26.608,4.13 -11.844,4.03 -22.039,11.22 -29.481,20.8 -3.601,4.63 -6.629,9.88 -9,15.59 -2.093,5.04 -3.195,9.78 -3.851,14.81 -25.598,7.67 -41.223,24.96 -41.223,46.16 0,16.01 11.008,29.03 21.645,41.63 17.347,20.54 24.914,31.14 7.5,47.64 -1.801,1.71 -3.954,3.31 -6.239,5 -3.261,2.41 -6.633,4.91 -9.718,8.22 -21.332,22.89 -9.465,67.65 -2.375,94.39 l 0.73,2.77 c 7.496,28.46 18.961,57.85 35.051,89.85 21.801,43.37 48.187,92.25 85.509,123.48 1.94,1.62 4.47,2.34 6.96,1.96 2.49,-0.37 4.71,-1.78 6.09,-3.89 1.3,-1.99 16.22,-24.9 31.82,-55.05 64.95,38.85 157.44,43.32 168.09,43.7 57.16,2.12 140.11,-6.88 210.76,-61.39 43.92,-33.88 80.13,-75.84 115.16,-116.43 9.14,-10.59 18.59,-21.55 28.03,-32.17 53.84,-60.66 104.98,-108.28 156.31,-145.61 39.21,-28.51 100.1,-43.83 141.14,-10.1 14.76,12.14 21.29,34.46 16.23,55.54 -4.39,18.31 -16.36,30.91 -32.85,34.55 -29.46,6.5 -53.9,-23.11 -73.92,-52.91 -1.82,-2.7 -4.96,-4.18 -8.19,-3.87 -3.24,0.32 -6.03,2.38 -7.29,5.38 -20.09,48.02 -20.92,88.13 -2.47,119.2 15.66,26.39 46.07,45 82.35,50.77 -0.63,56.54 13.1,97.9 40.87,123.03 16.99,15.37 48.1,32.24 99.88,25.26 2.71,-0.36 5.1,-1.97 6.47,-4.35 1.37,-2.38 1.55,-5.25 0.5,-7.78 -35.76,-86.18 -26.89,-118.52 -7.44,-189.38 1.75,-6.39 3.58,-13.07 5.47,-20.1 18.74,-69.96 12.91,-129.94 -17.33,-178.29 -48.73,-77.94 -142.54,-96.92 -146.51,-97.69 -18.94,-3.35 -37.62,-4.9 -56.07,-4.9" /><path
         id="path22"
         style="fill:#011f5b;fill-opacity:1;fill-rule:nonzero;stroke:none"
         d="m 976.148,2588.28 c -8.359,0 -16.839,0.5 -25.449,1.52 -4.844,0.57 -8.301,4.96 -7.73,9.81 0.574,4.84 4.953,8.32 9.804,7.73 40.211,-4.76 98.897,0.62 150.077,53.28 3.4,3.49 8.99,3.57 12.48,0.18 3.5,-3.4 3.58,-8.99 0.18,-12.49 -38.44,-39.54 -86.23,-60.03 -139.362,-60.03" /><path
         id="path24"
         style="fill:#011f5b;fill-opacity:1;fill-rule:nonzero;stroke:none"
         d="m 1684.56,2720.78 c -1.09,0 -2.21,0.22 -3.28,0.68 -4.18,1.82 -6.09,6.68 -4.28,10.86 9.23,21.23 10.49,38.8 3.77,52.21 -9.08,18.11 -30.34,23.3 -30.55,23.35 -2.3,0.55 -4.27,2.05 -5.39,4.14 -1.12,2.08 -1.31,4.55 -0.49,6.77 3.06,8.29 10.06,32.49 5.63,44.63 -3.79,10.42 -23.36,14.74 -29.92,15.44 -2.59,0.28 -4.91,1.77 -6.23,4.01 -1.33,2.26 -1.52,5 -0.52,7.4 2.75,6.59 8.42,26 1.7,36.42 -13.05,20.24 -47.32,10.43 -47.66,10.33 -2.94,-0.87 -6.14,-0.03 -8.27,2.18 -2.14,2.21 -2.87,5.43 -1.89,8.34 0.1,0.29 9.92,31.26 -9.37,50.96 -22.54,23.02 -70.82,9.48 -71.3,9.34 -2.94,-0.84 -6.11,0 -8.23,2.2 -2.12,2.2 -2.85,5.39 -1.91,8.29 0.34,1.06 8.28,26.7 -8.99,37.64 -27.46,17.4 -58.91,-4.87 -59.22,-5.09 -2.37,-1.72 -5.48,-2.04 -8.15,-0.86 -2.68,1.17 -4.53,3.69 -4.87,6.59 -0.17,1.4 -4.65,35.01 -34.22,39 -31.94,4.25 -65.79,-28.62 -66.12,-28.94 -1.69,-1.67 -4.01,-2.53 -6.38,-2.36 -2.37,0.17 -4.55,1.34 -5.99,3.23 -0.21,0.28 -22.76,29.39 -51.1,27.94 -27.39,-1.23 -38.13,-28.96 -38.23,-29.23 -0.98,-2.62 -3.22,-4.56 -5.94,-5.16 -2.73,-0.59 -5.57,0.21 -7.56,2.17 -0.26,0.25 -27.31,26.13 -55.14,15.92 -34.97,-12.83 -44.88,-55.6 -48.14,-69.66 l -0.11,-0.48 c -1.03,-4.44 -5.46,-7.21 -9.9,-6.18 -4.44,1.03 -7.21,5.46 -6.18,9.91 l 0.12,0.48 c 3.76,16.2 15.18,65.52 58.53,81.43 26.88,9.85 51.5,-3.63 63.94,-12.68 7.04,11.46 21.91,28.8 47.87,29.97 27.31,1.28 49.16,-17.36 59.12,-27.74 12.81,10.7 42.61,31.9 73.42,27.73 26.92,-3.62 40.4,-24.81 45.77,-41.64 14.39,7.12 41.47,15.96 67.31,-0.41 17.9,-11.34 19.65,-30.56 18.42,-43.45 18.74,3.16 53.72,5.29 74.98,-16.41 17.31,-17.69 17.84,-40.58 16,-54.72 15.2,1.79 39.96,0.95 53.27,-19.7 8.62,-13.4 5.9,-31.22 2.89,-42.15 11.2,-2.73 28.2,-9.28 33.71,-24.42 5.36,-14.73 0.47,-36.22 -3.01,-47.94 9.48,-3.89 24.53,-12.37 32.96,-29 9.12,-18.02 8.01,-40.35 -3.29,-66.38 -1.36,-3.11 -4.38,-4.96 -7.58,-4.96" /><path
         id="path26"
         style="fill:#011f5b;fill-opacity:1;fill-rule:nonzero;stroke:none"
         d="m 1643.37,2606.86 c -0.33,0 -0.67,0.02 -1.02,0.06 -4.52,0.55 -7.73,4.67 -7.18,9.19 3.85,31.58 -14.71,37.33 -31.1,42.4 -4.34,1.35 -8.1,2.51 -11.06,4.22 -8.74,5.06 -9.08,15.58 -9.43,26.72 -0.39,11.76 -0.81,25.08 -9.73,35.06 -15.32,17.13 -45.74,6.04 -46.05,5.93 -2.74,-1.02 -5.83,-0.51 -8.1,1.34 -2.27,1.85 -3.39,4.77 -2.93,7.67 0.05,0.32 4.87,33.67 -14.33,49.96 -16.33,13.86 -47.15,10.51 -57.65,8.05 -2.56,-0.6 -5.25,0.06 -7.24,1.76 -2,1.71 -3.06,4.26 -2.87,6.87 1.51,20.68 -6.73,38.43 -22.61,48.72 -13.45,8.71 -29.68,9.89 -42.37,3.05 -34.67,-18.68 -48.24,-19.93 -84.56,5.77 -11.35,8.04 -22.67,10.7 -33.66,7.9 -13.9,-3.53 -26.67,-15.91 -35.99,-34.86 -2.01,-4.08 -6.96,-5.76 -11.04,-3.76 -4.09,2 -5.78,6.95 -3.77,11.04 11.48,23.35 28.08,38.83 46.73,43.58 15.65,3.99 32,0.38 47.26,-10.42 30.59,-21.66 37.57,-20.68 67.21,-4.72 18,9.68 40.67,8.25 59.17,-3.74 18.02,-11.68 28.88,-31.17 30.17,-53.41 15.02,1.83 43.21,2.62 61.91,-13.25 17.74,-15.06 20.75,-38.66 20.74,-52.94 13.89,2.65 36.94,3.61 52.28,-13.54 12.92,-14.45 13.5,-32.41 13.92,-45.53 0.15,-4.52 0.36,-11.28 1.43,-13.09 1.46,-0.76 4.51,-1.7 7.46,-2.61 15.61,-4.84 48.12,-14.9 42.58,-60.17 -0.5,-4.19 -4.06,-7.25 -8.17,-7.25" /><path
         id="path28"
         style="fill:#011f5b;fill-opacity:1;fill-rule:nonzero;stroke:none"
         d="m 824.797,2692.95 c 0.109,-3.66 -0.859,-7.04 -2.887,-10.04 -2.086,-3.09 -5.609,-5.84 -9.344,-8.77 -7.75,-6.04 -17.394,-13.58 -17.394,-27.78 v -37.77 h -295.086 -0.168 -295.09 v 37.77 c 0,14.2 -9.644,21.74 -17.394,27.78 -3.731,2.93 -7.262,5.68 -9.348,8.77 -2.02,3 -2.996,6.38 -2.887,10.04 l 0.008,0.25 -0.008,0.26 c -0.109,3.66 0.867,7.04 2.887,10.04 2.086,3.09 5.617,5.85 9.348,8.76 7.75,6.06 17.394,13.59 17.394,27.79 v 169.65 c 0,14.2 -9.644,21.74 -17.394,27.79 -3.731,2.91 -7.262,5.67 -9.348,8.76 -2.02,3 -2.996,6.38 -2.887,10.04 l 0.008,0.25 -0.008,0.26 c -0.109,3.66 0.867,7.04 2.887,10.04 2.086,3.09 5.617,5.85 9.348,8.76 7.75,6.05 17.394,13.58 17.394,27.79 v 39.36 c 0.402,0 0.809,0 1.258,0 15.359,0 30.293,0.13 44.418,1.32 v -389.94 h 214.867 c 4.078,-15.38 18.074,-26.75 34.715,-26.75 16.641,0 30.633,11.37 34.707,26.75 h 214.875 v 0 389.93 c 14.074,-1.18 28.945,-1.31 44.25,-1.31 0.445,0 0.848,0 1.254,0 v -39.36 c 0,-14.21 9.644,-21.74 17.394,-27.79 3.735,-2.91 7.258,-5.67 9.344,-8.76 2.028,-3 2.996,-6.38 2.887,-10.04 l -0.004,-0.26 0.004,-0.25 c 0.109,-3.66 -0.859,-7.04 -2.887,-10.04 -2.086,-3.09 -5.609,-5.85 -9.344,-8.76 -7.75,-6.05 -17.394,-13.59 -17.394,-27.79 v -169.65 c 0,-14.2 9.644,-21.73 17.394,-27.79 3.735,-2.91 7.258,-5.67 9.344,-8.76 2.028,-3 2.996,-6.38 2.887,-10.04 l -0.004,-0.26 z M 295.781,3054.1 c 9.977,4.25 19.11,9.98 27.938,15.54 18.855,11.86 36.66,23.06 64.476,23.06 22.817,0 45.231,-9.02 65.004,-16.98 13.887,-5.59 26.192,-10.49 37.481,-12.09 v -341 c -0.711,-0.08 -1.399,-0.16 -2.008,-0.25 -16.465,-1.5 -39.766,-8.93 -66.492,-17.47 -8.645,-2.76 -17.477,-5.57 -26.246,-8.24 -25.758,-7.81 -52.516,-7.89 -78.387,-7.98 -16.914,-0.05 -32.996,-0.1 -47.742,-2.37 v 360.24 c 9.179,1.67 17.886,4.07 25.976,7.54 z m 251.016,21.62 c 19.777,7.96 42.195,16.98 65.008,16.98 27.816,0 45.625,-11.2 64.476,-23.06 8.828,-5.56 17.957,-11.29 27.938,-15.54 8.136,-3.49 16.898,-5.9 26.144,-7.57 v -360.21 c -14.742,2.27 -30.828,2.32 -47.742,2.37 -25.871,0.09 -52.629,0.17 -78.387,7.98 -8.769,2.67 -17.601,5.48 -26.242,8.24 -26.726,8.54 -50.031,15.97 -66.496,17.47 -0.312,0.04 -0.687,0.08 -1.027,0.12 v 341.3 c 10.976,1.76 22.922,6.52 36.328,11.92 z m 276.422,-349.81 c -6.86,5.35 -10.742,8.64 -10.742,14.14 v 169.65 c 0,5.49 3.882,8.79 10.742,14.15 4.414,3.45 9.418,7.35 13.039,12.72 3.992,5.91 6.008,12.81 5.847,19.97 0.161,7.17 -1.859,14.07 -5.847,19.98 -3.621,5.37 -8.625,9.27 -13.039,12.72 -6.86,5.36 -10.742,8.65 -10.742,14.15 v 59.16 h -13.434 v 0.01 c -31.445,0.02 -65.164,0.37 -87.055,9.73 -8.55,3.64 -16.621,8.72 -25.172,14.11 -19.449,12.23 -41.488,26.09 -75.011,26.09 -26.649,0 -50.953,-9.78 -72.399,-18.42 -14.371,-5.78 -27.945,-11.24 -37.336,-11.24 h -1.984 v 0 h -0.168 v 0 h -1.988 c -9.395,0 -22.969,5.46 -37.336,11.24 -21.446,8.64 -45.75,18.42 -72.399,18.42 -33.519,0 -55.566,-13.86 -75.015,-26.09 -8.551,-5.39 -16.621,-10.47 -25.172,-14.11 -21.891,-9.36 -55.606,-9.71 -87.051,-9.73 v -0.01 H 187.52 v -59.16 c 0,-5.5 -3.879,-8.79 -10.739,-14.15 -4.418,-3.45 -9.422,-7.35 -13.039,-12.72 -3.988,-5.91 -6.012,-12.81 -5.851,-19.98 -0.161,-7.16 1.863,-14.06 5.851,-19.97 3.617,-5.37 8.621,-9.27 13.035,-12.72 6.864,-5.36 10.743,-8.66 10.743,-14.15 v -169.65 c 0,-5.5 -3.879,-8.79 -10.739,-14.14 -4.418,-3.45 -9.422,-7.36 -13.039,-12.73 -3.988,-5.91 -6.012,-12.81 -5.851,-19.98 -0.161,-7.15 1.863,-14.06 5.851,-19.97 3.617,-5.36 8.621,-9.27 13.035,-12.72 6.864,-5.36 10.743,-8.66 10.743,-14.15 v -56.8 l -0.446,-0.76 h 0.446 v -0.04 l 312.48,0.01 312.477,-0.01 v 0.04 h 0.449 l -0.449,0.76 v 56.8 c 0,5.49 3.882,8.79 10.742,14.15 4.414,3.45 9.418,7.36 13.039,12.72 3.992,5.91 6.008,12.82 5.847,19.97 0.161,7.17 -1.859,14.07 -5.847,19.98 -3.621,5.37 -8.625,9.28 -13.039,12.73" /><path
         id="path30"
         style="fill:#011f5b;fill-opacity:1;fill-rule:nonzero;stroke:none"
         d="m 2751.51,2692.95 c 0.11,-3.66 -0.86,-7.04 -2.89,-10.04 -2.09,-3.09 -5.61,-5.84 -9.34,-8.77 -7.76,-6.04 -17.39,-13.58 -17.39,-27.78 v -37.77 h -295.09 -0.17 -295.09 v 37.77 c 0,14.2 -9.64,21.74 -17.4,27.78 -3.73,2.93 -7.25,5.68 -9.34,8.77 -2.03,3 -2.99,6.38 -2.88,10.04 v 0.25 0.26 c -0.11,3.66 0.85,7.04 2.88,10.04 2.09,3.09 5.61,5.85 9.34,8.76 7.76,6.06 17.4,13.59 17.4,27.79 v 169.65 c 0,14.2 -9.64,21.74 -17.4,27.79 -3.73,2.91 -7.25,5.67 -9.34,8.76 -2.03,3 -2.99,6.38 -2.88,10.04 v 0.25 0.26 c -0.11,3.66 0.85,7.04 2.88,10.04 2.09,3.09 5.61,5.85 9.34,8.76 7.76,6.05 17.4,13.58 17.4,27.79 v 39.36 c 0.4,0 0.8,0 1.25,0 15.37,0 30.3,0.13 44.43,1.32 v -389.94 h 214.86 c 4.08,-15.38 18.08,-26.75 34.72,-26.75 16.64,0 30.63,11.37 34.71,26.75 h 214.87 v 0 389.93 c 14.07,-1.18 28.94,-1.31 44.25,-1.31 0.45,0 0.85,0 1.26,0 v -39.36 c 0,-14.21 9.63,-21.74 17.39,-27.79 3.73,-2.91 7.25,-5.67 9.34,-8.76 2.03,-3 3,-6.38 2.89,-10.04 v -0.26 -0.25 c 0.11,-3.66 -0.86,-7.04 -2.89,-10.04 -2.09,-3.09 -5.61,-5.85 -9.34,-8.76 -7.76,-6.05 -17.39,-13.59 -17.39,-27.79 v -169.65 c 0,-14.2 9.63,-21.73 17.39,-27.79 3.73,-2.91 7.25,-5.67 9.34,-8.76 2.03,-3 3,-6.38 2.89,-10.04 v -0.26 z m -529.02,361.15 c 9.98,4.25 19.11,9.98 27.94,15.54 18.86,11.86 36.66,23.06 64.47,23.06 22.83,0 45.24,-9.02 65.01,-16.98 13.89,-5.59 26.19,-10.49 37.48,-12.09 v -341 c -0.71,-0.08 -1.39,-0.16 -2.01,-0.25 -16.46,-1.5 -39.76,-8.93 -66.49,-17.47 -8.64,-2.76 -17.47,-5.57 -26.24,-8.24 -25.76,-7.81 -52.52,-7.89 -78.39,-7.98 -16.92,-0.05 -33,-0.1 -47.75,-2.37 v 360.24 c 9.18,1.67 17.9,4.07 25.98,7.54 z m 251.02,21.62 c 19.77,7.96 42.19,16.98 65.01,16.98 27.81,0 45.62,-11.2 64.47,-23.06 8.83,-5.56 17.96,-11.29 27.94,-15.54 8.13,-3.49 16.9,-5.9 26.14,-7.57 v -360.21 c -14.73,2.27 -30.82,2.32 -47.73,2.37 -25.88,0.09 -52.64,0.17 -78.39,7.98 -8.77,2.67 -17.61,5.48 -26.24,8.24 -26.73,8.54 -50.04,15.97 -66.51,17.47 -0.31,0.04 -0.68,0.08 -1.02,0.12 v 341.3 c 10.98,1.76 22.92,6.52 36.33,11.92 z m 276.42,-349.81 c -6.86,5.35 -10.74,8.64 -10.74,14.14 v 169.65 c 0,5.49 3.88,8.79 10.74,14.15 4.42,3.45 9.42,7.35 13.04,12.72 3.99,5.91 6.01,12.81 5.85,19.97 0.16,7.17 -1.87,14.07 -5.85,19.98 -3.62,5.37 -8.62,9.27 -13.04,12.72 -6.86,5.36 -10.74,8.65 -10.74,14.15 v 59.16 h -13.44 v 0.01 c -31.44,0.02 -65.16,0.37 -87.05,9.73 -8.55,3.64 -16.62,8.72 -25.17,14.11 -19.45,12.23 -41.49,26.09 -75.01,26.09 -26.65,0 -50.95,-9.78 -72.41,-18.42 -14.36,-5.78 -27.93,-11.24 -37.33,-11.24 h -1.98 v 0 h -0.17 v 0 h -1.99 c -9.39,0 -22.97,5.46 -37.33,11.24 -21.45,8.64 -45.76,18.42 -72.41,18.42 -33.51,0 -55.55,-13.86 -75.01,-26.09 -8.55,-5.39 -16.62,-10.47 -25.17,-14.11 -21.89,-9.36 -55.61,-9.71 -87.05,-9.73 v -0.01 h -13.44 v -59.16 c 0,-5.5 -3.88,-8.79 -10.73,-14.15 -4.43,-3.45 -9.43,-7.35 -13.05,-12.72 -3.98,-5.91 -6.01,-12.81 -5.85,-19.98 -0.16,-7.16 1.87,-14.06 5.85,-19.97 3.62,-5.37 8.62,-9.27 13.04,-12.72 6.86,-5.36 10.74,-8.66 10.74,-14.15 v -169.65 c 0,-5.5 -3.88,-8.79 -10.73,-14.14 -4.43,-3.45 -9.43,-7.36 -13.05,-12.73 -3.98,-5.91 -6.01,-12.81 -5.85,-19.98 -0.16,-7.15 1.87,-14.06 5.85,-19.97 3.62,-5.36 8.62,-9.27 13.04,-12.72 6.86,-5.36 10.74,-8.66 10.74,-14.15 v -56.8 l -0.44,-0.76 h 0.44 v -0.04 l 312.48,0.01 312.48,-0.01 v 0.04 h 0.45 l -0.45,0.76 v 56.8 c 0,5.49 3.88,8.79 10.74,14.15 4.42,3.45 9.42,7.36 13.04,12.72 3.99,5.91 6.01,12.82 5.85,19.97 0.16,7.17 -1.87,14.07 -5.85,19.98 -3.62,5.37 -8.62,9.28 -13.04,12.73" /><path
         id="path32"
         style="fill:#011f5b;fill-opacity:1;fill-rule:nonzero;stroke:none"
         d="M 2676.07,1184.83 1463.36,2354.45 250.66,1184.83 c -94.14,198.03 -156.7733,427.8 -155.9764,688.31 0.0195,7.66 0.0234,243.74 0.0195,518.78 H 2832.02 c -0.01,-275.04 0,-511.12 0.02,-518.78 0.79,-260.51 -61.83,-490.28 -155.97,-688.31 z M 2288.9,1062.81 c -94.18,-94.169 -246.86,-94.169 -341.03,0 -94.17,94.17 -94.17,246.86 0,341.03 94.17,94.17 246.85,94.17 341.03,0 94.17,-94.17 94.17,-246.86 0,-341.03 z m -1066.63,768.74 c 0,133.16 107.94,241.1 241.09,241.1 133.15,0 241.09,-107.94 241.09,-241.1 0,-133.15 -107.94,-241.09 -241.09,-241.09 -133.15,0 -241.09,107.94 -241.09,241.09 z M 2216.77,573.719 C 1891.18,271.859 1553.73,119.742 1463.36,96.9102 1372.99,119.742 1035.54,271.859 709.957,573.719 c -7.922,7.351 -15.887,14.863 -23.887,22.472 l 777.29,825.249 777.3,-825.249 c -8,-7.609 -15.97,-15.121 -23.89,-22.472 z M 637.828,1062.81 c -94.172,94.17 -94.172,246.86 0,341.03 94.168,94.17 246.856,94.17 341.027,0 94.165,-94.17 94.165,-246.86 0,-341.03 -94.171,-94.169 -246.859,-94.169 -341.027,0 z M 2832.05,3237.67 c -0.01,-89.67 -0.02,-470.16 -0.03,-806.67 H 94.7031 c -0.0078,336.51 -0.0234,717 -0.0273,806.67 z m 39.07,39.08 H 55.5977 c 0,0 0.0586,-1385.05 0.0156,-1403.51 C 53.7266,1258.29 395.957,811.551 683.387,545.059 996.742,254.531 1349.64,81.5391 1460.5,57.4102 l 2.86,-0.6211 2.86,0.6211 c 110.86,24.1289 463.76,197.1208 777.12,487.6488 287.42,266.492 629.66,713.231 627.77,1328.181 -0.04,18.46 0.01,1403.51 0.01,1403.51" /></g></g></svg>